<?xml version="1.0" encoding="utf-8"?>
<svg width="974px" height="119px" viewbox="0 0 974 119" version="1.1" xmlns:xlink="http://www.w3.org/1999/xlink" xmlns="http://www.w3.org/2000/svg">
  <g id="Group-7">
    <path d="M16.7664 14.5325L0 15.6875L11.111 28.3568L7.02163 44.7373L22.4481 38.0325L36.6874 47L35.11 30.1878L48 19.3514L31.5992 15.6648L25.3239 0L16.7664 14.5325Z" transform="translate(0 27)" id="Fill-1" fill="#FB8547" fill-rule="evenodd" stroke="none" />
    <path d="M10.6629 9.59596L0 11.4318L7.98178 18.5593L6.48219 29L15.9057 23.8097L25.6415 28.4256L23.4827 18.0919L31 10.5026L20.2426 9.30876L15.154 0L10.6629 9.59596Z" transform="translate(68 90)" id="Fill-3" fill="#114837" fill-rule="evenodd" stroke="none" />
    <path d="M6.48026 29L7.98178 18.5574L0 11.4337L10.661 9.59596L15.1521 0L20.2407 9.30876L31 10.5026L23.4808 18.0919L25.6396 28.4256L15.9057 23.8078L6.48026 29Z" transform="translate(135 53)" id="Fill-4" fill="#F7B8AE" fill-rule="evenodd" stroke="none" />
    <path d="M0 24.011L14.0935 16.0314L15.4532 0L27.4631 10.8217L43.2649 7.14994L36.5925 21.8163L45 35.5788L28.8669 33.8208L18.2608 46L14.9611 30.2477L0 24.011Z" transform="translate(235 34)" id="Fill-5" fill="#80A08D" fill-rule="evenodd" stroke="none" />
    <path d="M0 24.011L14.0935 16.0314L15.4532 0L27.4631 10.8217L43.2649 7.14994L36.5925 21.8163L45 35.5788L28.8669 33.8208L18.2608 46L14.9611 30.2477L0 24.011Z" transform="translate(235 34)" id="Fill-5" fill="#80A08D" fill-rule="evenodd" stroke="none" />
    <path d="M0 24.011L14.0935 16.0314L15.4532 0L27.4631 10.8217L43.2649 7.14994L36.5925 21.8163L45 35.5788L28.8669 33.8208L18.2608 46L14.9611 30.2477L0 24.011Z" transform="translate(860 56)" id="Fill-5" fill="#C9CFDA" fill-rule="evenodd" stroke="none" />
    <path d="M8.99561 9.5696L0 13.2504L8.36341 18.2233L9.05017 28L16.3185 21.5031L25.7375 23.8651L21.8634 14.877L27 6.56152L27 6.55962L17.3383 7.50214L11.0935 0L8.99561 9.5696Z" transform="translate(353 0)" id="Fill-6" fill="#F7B8AE" fill-rule="evenodd" stroke="none" />
    <path d="M11.7306 0L8.25368 7.61059L0 9.06661L6.17944 14.718L5.01697 23L12.3141 18.8821L19.85 22.5444L18.1802 14.3488L24 8.32818L15.6702 7.38132L11.7306 0Z" transform="translate(654 19)" id="Fill-2" fill="#F6D500" fill-rule="evenodd" stroke="none" />
    <path d="M0 18.7912L10.9616 12.5463L12.0192 0L21.3602 8.46919L33.6505 5.59561L28.4609 17.0736L35 27.8443L22.452 26.4684L14.2029 36L11.6364 23.6721L0 18.7912Z" transform="translate(709 69)" id="Fill-3" fill="#80A08D" fill-rule="evenodd" stroke="none" />
    <path d="M8.66174 8.88655L0 12.3029L8.05382 16.9205L8.71498 26L15.7127 19.9652L24.7856 22.1602L21.0553 13.8152L26 6.0924L16.6978 6.96665L10.6822 0L8.66174 8.88655Z" transform="translate(948 65)" id="Fill-4" fill="#F6D500" fill-rule="evenodd" stroke="none" />
    <path d="M7.03853 22L6.50443 14.3173L0 10.4103L6.9961 7.51995L8.62769 0L13.4859 5.89563L21 5.15513L17.0052 11.6897L20.0167 18.7514L12.6913 16.8956L7.03853 22Z" transform="translate(800 43)" id="Fill-5" fill="#F7B8AE" fill-rule="evenodd" stroke="none" />
  </g>
</svg>