<?xml version="1.0" encoding="utf-8"?>
<svg width="87px" height="96px" viewbox="0 0 87 96" version="1.1" xmlns:xlink="http://www.w3.org/1999/xlink" xmlns="http://www.w3.org/2000/svg">
  <defs>
    <path d="M0 0L86.9759 0L86.9759 95.8459L0 95.8459L0 0Z" transform="translate(0 0.11714556)" id="path_1" />
    <clipPath id="mask_1">
      <use xlink:href="#path_1" />
    </clipPath>
  </defs>
  <g id="Group-170">
    <path d="M0.133052 0.149713C0.164429 0.125003 0.158439 0.129263 0.131056 0.151133C0.131626 0.150849 0.132482 0.150281 0.133052 0.149713" transform="translate(67.857376 93.85799)" id="Fill-1" fill="#000000" fill-rule="evenodd" stroke="none" />
    <path d="M0.135489 0.148732C0.16002 0.127146 0.150036 0.133963 0.134918 0.149016C0.135204 0.149016 0.135204 0.148732 0.135489 0.148732" transform="translate(85.857376 77.85799)" id="Fill-3" fill="#000000" fill-rule="evenodd" stroke="none" />
    <path d="M0.136106 0.147917C0.170621 0.120366 0.150654 0.132579 0.130401 0.152177C0.132398 0.150757 0.134395 0.149337 0.136106 0.147917" transform="translate(71.857376 90.85799)" id="Fill-5" fill="#000000" fill-rule="evenodd" stroke="none" />
    <path d="M0.138949 0.145625C0.173749 0.118358 0.149788 0.133128 0.12868 0.153293C0.132103 0.150737 0.135526 0.148181 0.138949 0.145625" transform="translate(78.857376 83.85799)" id="Fill-7" fill="#000000" fill-rule="evenodd" stroke="none" />
    <g id="Group-11">
      <path d="M0 0L86.9759 0L86.9759 95.8459L0 95.8459L0 0Z" transform="translate(0 0.11714556)" id="Clip-10" fill="none" fill-rule="evenodd" stroke="none" />
      <g clip-path="url(#mask_1)">
        <path d="M85.4585 80.2446C83.8074 81.5627 85.8923 80.1842 80.0262 84.7892C80.0981 84.7455 66.6957 95.6138 66.6305 95.4417C66.6318 95.4456 66.6334 95.4494 66.6347 95.453C66.5891 95.2822 66.6373 95.4652 66.6174 94.708C67.1998 93.9943 68.3611 83.9037 68.3688 83.8286C69.4333 78.4662 68.4783 83.6293 68.5309 84.033C68.5309 84.1142 68.5691 84.1473 68.6307 84.1816C67.9571 89.4609 67.9992 89.7472 67.7652 92.1896C67.7533 92.3244 67.9469 92.4402 68.071 92.3157C68.1837 92.2034 68.064 92.2384 68.5848 87.4534C68.6836 86.5948 68.631 86.9042 68.7051 86.9784C68.8893 87.1626 69.0325 86.8984 69.5113 86.3532C69.4211 87.6957 69.6274 87.265 68.7125 88.2288C68.5428 88.4059 68.8101 88.646 68.968 88.4817C69.1124 88.3289 69.259 88.1761 69.4044 88.0237C69.3839 88.2914 69.3636 88.5587 69.3431 88.826C69.3248 89.0343 69.6791 89.0921 69.7025 88.826C69.8132 87.3375 69.6338 87.7881 70.5811 86.79C70.7255 86.8558 70.827 86.746 70.827 86.6382C70.8286 86.4575 72.1982 85.0755 72.2697 85.0036C72.2826 85.0915 72.348 85.1679 72.4427 85.1679C72.6721 85.1679 72.6221 84.9083 72.6121 84.6659C74.0581 83.2287 75.5946 82.0069 75.5946 81.8362C75.5946 81.6738 75.4126 81.5954 75.2894 81.7046C74.361 82.5352 73.4786 83.3436 72.805 83.973C72.5264 84.2372 72.5884 84.4461 72.5925 82.8696C72.8794 82.5519 73.0502 82.3474 73.8778 81.5216C73.8611 82.3253 73.7735 82.6806 74.036 82.6806C74.2664 82.6806 74.2266 82.5005 74.2449 81.1654C75.0099 80.4294 75.3398 80.3158 75.1331 80.1088C74.9624 79.9381 74.7878 80.1878 74.2468 80.6817C74.2436 80.0228 74.2959 79.7779 74.061 79.7779C73.8049 79.7779 73.896 80.0238 73.8864 81.0148C73.4744 81.4093 73.0774 81.7976 72.5935 82.3343C72.5967 81.0084 72.6015 81.4558 72.6096 80.5479C74.0209 79.0872 74.2664 79.1421 74.2664 78.9451C74.2664 78.3179 73.0861 79.5552 72.6153 80.0286C72.6201 79.6589 72.6185 79.2891 72.6278 78.9194C73.1073 78.4553 73.1304 78.4851 73.1304 78.3741C73.1304 77.5846 71.5291 79.5921 70.9694 80.217C71.0314 78.4177 70.9322 78.7833 71.3426 78.2364C71.6096 78.333 71.6783 78.3786 71.7733 78.3818C71.9671 78.3885 72.013 78.1183 71.8657 78.0477C71.7938 78.0108 71.6459 77.9492 71.5846 77.9257C71.8323 77.6086 71.703 77.6914 72.0679 77.7726C76.4161 78.706 80.7271 79.0811 82.9606 79.0455C87.915 78.9175 86.2877 78.8404 86.5826 79.3954C86.4317 79.5388 86.6477 79.3 85.4585 80.2446L85.4585 80.2446ZM65.1441 95.2399C62.6921 95.2065 49.0027 92.8093 43.5304 92.4887C38.7718 92.2027 39.1832 92.0554 36.3307 91.7335C34.9434 91.5692 21.9408 90.5967 21.8683 90.5881C15.1974 89.6599 15.6871 89.381 12.8474 88.8306C6.9258 87.6639 8.21711 88.2949 3.44691 87.0227C2.01376 86.6427 1.37485 86.6661 0.473754 86.2604C0.473754 76.079 0.0835373 56.3385 1.00196 23.0997C12.53 24.0661 6.42231 24.2949 23.6072 25.3059C23.8335 25.3158 24.5032 25.3787 24.7468 25.4041C25.3831 25.4782 25.0625 24.6232 24.044 32.6164C23.8774 34.0568 23.9772 33.7083 23.4603 33.8867C22.5582 34.208 22.2578 35.0912 22.1718 36.0371C22.1182 36.574 22.2229 37.0487 22.7305 37.4887C23.7407 38.3437 25.0664 37.9367 24.4387 38.0715C23.8867 38.1932 23.0174 38.2731 22.4568 38.3129C22.2014 38.3277 22.2383 38.6849 22.4568 38.6723C23.6672 38.5834 24.2798 38.4987 25.042 38.2933C25.1768 38.2593 26.0201 38.0061 26.092 37.8863C26.177 37.7272 26.0153 37.5721 25.8898 37.6225C25.3148 37.8475 25.6815 37.7069 25.8853 37.5699C27.2103 36.6623 27.6057 34.4448 25.8516 33.8813C25.6424 33.8113 25.5121 34.1451 25.7563 34.2266C25.9556 34.293 25.7958 34.2298 25.7313 34.3473C25.6937 34.4099 25.6963 34.4862 25.7483 34.5501C25.8686 34.7112 25.6774 34.4984 25.5708 34.682C25.4819 34.8338 25.6174 34.9153 25.7114 34.9741C25.714 35.0315 25.7165 35.0893 25.7181 35.1467C25.5506 35.1747 25.5705 35.3124 25.5426 35.4789C25.4723 35.5951 25.3722 36.0788 25.3776 36.2142C25.4123 36.608 25.042 36.825 25.1139 36.7531C24.801 36.979 23.7625 36.8786 23.4843 36.7335C22.8618 36.2457 23.0553 35.2299 23.3367 34.8261C23.2818 34.8983 23.3954 34.7247 23.8267 34.3097C23.6897 35.3525 23.655 35.4025 23.7436 35.4911C23.8899 35.6372 23.5453 36.4755 24.4079 36.5188C24.86 36.5188 25.2814 36.2912 25.4101 35.7553C25.4592 35.5922 25.5936 34.6836 25.4518 34.5581C25.5365 33.9108 25.9678 32.0149 26.099 30.8204C26.2081 29.9172 26.1616 29.9484 26.4077 26.8817C26.5207 25.6307 26.591 25.6994 26.4177 25.615C26.469 25.2674 42.501 28.2448 51.267 28.3616C51.0568 32.1745 51.0642 35.4594 51.0851 38.0404C50.8945 38.0289 50.4375 38.6066 50.3239 38.8954C50.0425 39.5678 50.1753 40.3217 50.9638 40.6638C51.4981 40.9016 52.5869 40.8618 52.6591 40.849C52.9713 40.7925 53.0788 40.5066 53.2707 40.3467C53.6295 40.0367 53.7511 39.5944 53.6119 40.0688C53.5178 40.3974 53.2605 40.807 53.0281 41.0595C52.3581 41.7538 51.8087 41.6841 50.9972 41.3449C50.1166 40.9392 49.7604 40.3297 49.9009 39.2273C50.0431 38.2423 50.1869 38.1807 50.9901 37.7836C51.1775 37.6867 51.0453 37.3571 50.8078 37.4717C50.4969 37.6331 50.0749 37.8161 49.8814 38.095C49.5483 38.5818 49.1324 40.2382 50.148 41.228C52.4508 43.4217 55.2276 40.1561 53.4575 38.2384C53.1902 37.9403 52.592 37.6707 52.4926 37.679C52.3745 35.7601 52.4592 28.4441 52.4601 28.3712C55.0989 28.3799 64.8556 28.1979 70.748 29.389C70.7342 30.0559 70.8038 29.7808 70.4098 30.4946C70.2904 30.7125 70.6097 30.8746 70.7214 30.6772C71.0516 30.0784 70.9916 30.0023 70.8959 32.0727C70.8093 33.733 69.8597 43.8345 69.7003 48.0774C69.5485 52.6444 70.4541 61.0106 66.8734 85.3229C66.2105 89.8662 66.3523 93.1803 66.1341 95.0938C65.9772 95.081 65.9499 95.2094 65.9364 95.3137C65.4695 95.2469 65.535 95.2476 65.1441 95.2399L65.1441 95.2399ZM8.82008 23.5801C7.69051 23.4778 7.55766 23.4547 6.80193 23.3237C5.29819 23.0631 5.75387 23.1812 6.34272 23.1565C7.30864 23.1347 7.43411 23.1828 8.82008 23.5801L8.82008 23.5801ZM3.23832 22.5425C3.23736 22.5429 3.23607 22.5432 3.23511 22.5432C5.70381 22.263 4.41571 22.6234 6.92388 22.1214C7.10904 22.0861 9.4529 21.8913 9.52543 21.8859C9.44103 21.9414 8.64712 23.1507 9.02995 23.2621C9.21768 23.3144 9.25908 23.11 9.32679 22.9395C9.5819 22.374 9.7953 22.1458 9.7953 22.0248C9.7953 21.7607 9.3223 21.9783 10.8155 21.7504C10.7086 21.8024 9.59217 22.9691 9.93201 23.1729C10.1326 23.2865 10.2 23.0483 10.3418 22.8388C10.6922 22.2854 11.3751 21.8332 10.9258 21.7337C11.4926 21.6458 11.4162 21.6429 12.0028 21.6099C9.88099 24.7073 11.6434 23.5413 7.3449 22.8394C6.20121 22.651 1.59338 22.8246 3.23832 22.5425L3.23832 22.5425ZM13.2049 22.0675C12.9247 22.0207 12.9982 22.3734 12.618 23.0018C12.1677 23.7605 12.1392 23.7759 12.196 23.8985C12.0346 23.8809 11.3741 23.7304 11.0901 23.6841C12.3112 21.6644 12.4309 21.7796 12.3452 21.5896C14.0768 21.5521 13.7729 21.2308 13.2049 22.0675L13.2049 22.0675ZM13.2909 18.9428C13.5158 18.9871 13.5232 18.7294 13.573 18.4617C13.5957 18.366 13.5479 18.2678 13.4494 18.2425C13.2877 18.1969 13.2848 18.4546 13.2848 18.039C13.2848 15.3222 13.4045 17.0768 14.3941 18.4033C14.1705 18.4293 13.6814 19.5731 13.5778 19.7965C13.4735 20.0504 13.7976 20.1627 13.8897 19.9791C14.2282 19.2464 14.0957 19.4614 14.5687 18.6623C14.6454 18.5387 15.5847 20.0244 15.8956 20.7022C15.7628 20.7356 13.8172 21.1092 13.5707 21.1442C13.1532 21.1958 13.3589 21.1962 13.3551 21.0511C13.33 20.1739 13.3121 21.2138 13.2909 18.9428L13.2909 18.9428ZM14.5357 16.1862C18.5078 16.217 18.2815 16.7729 22.2941 16.9889C23.1069 17.0296 24.1425 17.2142 25.3263 17.3182C24.3604 18.2287 24.1082 18.6148 23.2822 19.854C20.9643 23.3314 20.7133 23.7541 20.9441 23.8879C21.2714 24.0799 23.5819 19.4464 25.3061 17.8326C25.6546 17.5021 25.6915 17.4976 25.6915 17.392C25.6915 17.3332 25.5294 17.3458 26.2829 17.3779C26.0718 18.3144 25.2143 24.5963 25.2044 24.6688C22.6304 24.3337 23.0274 24.4297 23.0623 24.3578C25.3574 19.6283 25.9893 20.0029 25.6867 19.7002C25.1864 19.1999 22.6834 24.1238 22.7366 24.3154C22.7694 24.4467 22.082 24.1502 20.2878 24.2965C19.2295 24.4005 19.5639 24.3783 17.7139 24.2657C16.1312 24.1851 16.3664 24.326 16.3504 24.197C16.3321 24.0548 16.4052 23.2355 16.4383 22.5611C16.4986 22.7787 16.7801 22.7162 16.7801 22.5191C16.7801 22.3285 16.5086 22.2556 16.4405 22.4716C16.4601 22.0419 16.5066 21.132 16.3966 20.8431C16.6106 20.6034 16.5002 20.4349 16.3837 20.1617C14.6849 15.9959 13.3191 16.1775 14.5357 16.1862L14.5357 16.1862ZM40.7848 0.356764C44.8089 0.120226 46.5799 1.84564 49.204 4.73351C48.6167 4.79803 49.7373 5.56188 50.0479 5.98777C50.0511 5.99195 50.0543 5.9958 50.0576 5.99965C50.0547 5.99644 50.0521 5.99323 50.0495 5.99002C50.1195 6.08598 50.166 6.19382 50.2254 6.29556C49.6953 6.59404 51.6649 7.47023 51.9156 15.2403C52.1129 20.4561 52.3626 19.9268 51.7372 19.8787C51.8036 15.5404 51.6364 15.1636 51.2086 11.4657C50.7947 7.99594 50.398 7.22759 49.151 5.39338C48.5506 4.51559 47.8228 3.03442 45.4459 1.86746C43.4457 0.92837 43.4168 1.09879 42.1123 0.999941C41.9352 0.515954 37.5398 1.22813 36.1651 1.72015C34.5076 2.32128 34.3985 2.60981 33.5533 3.17789C33.2978 3.05207 32.0174 3.88878 31.6583 4.31885C30.1588 6.08791 27.6005 12.262 27.0855 16.9452C27.0688 17.0973 27.1333 17.0579 26.7238 17.0437C28.5966 9.46684 29.6097 1.04327 40.7848 0.356764L40.7848 0.356764ZM51.5645 3.49594C51.3935 3.57297 51.4381 3.78191 51.5873 3.82588C52.3337 4.05696 52.5814 4.14329 53.454 5.05189C53.806 5.41906 53.6552 5.28233 53.6552 5.42291C53.6552 5.73904 54.6416 5.79809 55.7969 8.19107C58.1484 12.8942 57.765 19.5651 57.7768 19.637C57.7861 19.766 57.8407 19.8809 57.9703 19.8809C58.1626 19.8809 58.1285 19.4987 58.118 20.3521C57.9071 20.345 57.6963 20.336 57.4855 20.3286C57.4656 16.8842 56.8151 11.1926 56.19 9.6026C55.7917 8.57557 54.1186 5.94669 53.2284 5.18926C52.0471 4.17057 50.1391 3.01645 48.5801 2.96028C47.7698 2.93557 48.2111 3.02993 47.2975 2.25677C49.2341 2.28469 50.4561 2.74044 51.5645 3.49594L51.5645 3.49594ZM67.1366 21.3955C66.5188 21.8933 64.6108 23.6979 64.6916 24.0022C64.724 24.1062 64.8254 24.1559 64.9134 24.1283C64.9894 24.1059 65.0145 24.0539 65.0863 23.9576C66.3061 22.4004 67.5428 21.5691 67.607 21.4532C68.424 21.5575 67.9302 21.5072 68.9343 21.6262C68.5113 21.847 67.8936 22.5753 67.6702 22.8288C66.4819 24.2278 66.3799 24.2644 66.5362 24.4204C66.8022 24.6865 66.9864 24.0503 68.4728 22.4751C68.9317 22.004 69.1887 21.9491 69.1887 21.7761C69.1887 21.5957 68.9205 21.6355 69.6056 21.6997C73.8652 22.1301 72.0101 22.2164 75.5509 22.7666C77.3942 23.0609 80.6417 23.0872 82.9355 24.0089C82.7969 24.0115 82.8293 24.0157 82.7006 24.0292C81.8515 23.2823 78.7728 23.359 77.9805 23.238C76.736 23.0673 74.8533 22.4716 74.7628 22.9065C73.7362 22.7804 73.544 22.8259 72.2986 22.6536C72.485 22.4957 72.7244 22.3561 72.5563 22.1799C72.495 22.1186 72.3945 22.1067 72.3012 22.1799C71.755 22.6282 71.9527 22.6212 71.3298 22.4989C70.2666 22.2877 70.8979 22.3971 70.9659 22.108C71.0163 21.9379 70.8099 21.8201 70.7021 21.9032C70.671 21.927 70.2647 22.2684 70.2265 22.2601C70.1229 22.2389 69.9894 22.2944 70.0138 22.4581C69.312 23.0541 68.3948 23.9916 67.9119 24.5671C67.8352 24.6502 67.8464 24.7574 67.9119 24.8225C68.1821 25.0928 68.3666 24.3235 70.336 22.6526C72.0919 23.0403 71.549 22.5146 70.4091 24.2127C70.2846 24.3931 70.5766 24.6107 70.7178 24.395C70.9649 24.0311 71.5098 23.3731 71.9482 22.9607C73.7074 23.2252 73.5013 23.0374 73.1548 23.3016C72.8583 23.5368 72.4055 23.8828 72.6019 24.0789C72.7748 24.2522 72.8919 24.0189 73.1265 23.7843C73.3598 23.5654 73.8505 23.2666 73.9676 23.1841C74.3925 23.2165 75.1363 23.315 75.9617 23.3979C76.0127 23.5461 76.1786 23.5776 76.2643 23.4296C81.9163 24.0227 80.6757 23.8947 78.5235 24.0025C77.3457 24.0561 76.6597 24.3559 75.7079 24.3954C72.7713 24.5083 70.9951 24.2201 70.9951 24.6142C70.9951 24.7131 71.3269 24.6524 69.5151 24.6524C69.3774 24.6524 69.2696 24.8155 69.3835 24.9467C64.1766 24.9198 65.0687 24.1553 64.7279 26.9799C64.6942 27.2187 64.648 27.4257 64.648 27.5291C64.648 27.7765 65.3572 27.7223 63.7841 27.5952C57.7367 27.0692 58.7004 27.7332 53.5474 27.4492C52.2949 27.3786 52.4897 27.6584 52.5051 27.0005C52.5067 26.927 52.6315 21.0273 52.6527 20.5279C52.6745 20.0241 52.5147 20.5215 57.575 20.6948C64.1108 20.9157 63.6131 20.9856 67.1366 21.3955L67.1366 21.3955ZM70.9229 36.1847C70.8866 36.1882 70.9762 35.4163 70.9797 35.3801C70.9598 35.6484 70.9412 35.9167 70.9229 36.1847L70.9229 36.1847ZM65.4807 25.3328C65.363 25.3312 65.3039 25.3861 65.3087 25.5055C65.2144 25.4558 65.215 25.4946 65.3078 25.3142C65.3973 25.3232 65.4557 25.2738 65.483 25.1891C65.6688 25.2035 65.4827 25.1688 65.4807 25.3328L65.4807 25.3328ZM66.5156 25.3996C66.8195 25.7469 66.8077 25.52 65.8392 25.4522C65.8392 25.3454 65.8527 25.276 65.7865 25.209C66.7942 25.2815 66.3404 25.2016 66.5156 25.3996L66.5156 25.3996ZM67.3323 25.3081C67.2929 25.3784 67.316 25.4471 67.3304 25.5315C67.0987 25.5604 67.3634 25.8242 66.8789 25.268C67.5014 25.2902 67.357 25.2693 67.3323 25.3081L67.3323 25.3081ZM67.7967 26.0155C67.744 25.8159 67.7761 26.0113 67.6606 25.3531C67.6487 25.2837 67.5618 25.2898 67.651 25.2911C68.3897 25.3084 68.2668 25.1056 67.7967 26.0155L67.7967 26.0155ZM68.8752 26.7909C68.8155 26.8792 68.8617 26.9007 68.6554 26.7444C68.6647 26.6725 68.6676 26.6792 68.6323 26.607C68.5527 26.2482 68.8409 25.4471 68.7087 25.2995C69.3614 25.3027 68.9503 25.1172 68.8752 26.7909L68.8752 26.7909ZM81.1327 24.0137C81.1847 23.9749 81.1295 23.9226 81.3724 24.0109C81.6519 24.1094 81.382 24.0654 81.1327 24.0137L81.1327 24.0137ZM70.7124 26.1939C70.721 26.0534 70.5259 25.942 70.4059 26.0704C70.4114 25.9985 70.4399 25.5562 70.4399 25.6281C70.4399 25.5748 70.3873 25.5636 70.4213 25.5312C70.4884 25.4673 70.4849 25.3935 70.4358 25.3139C71.8092 25.3264 71.5272 25.0947 70.7124 26.1939L70.7124 26.1939ZM65.4573 27.6982C65.4535 27.8324 65.6591 27.8372 65.1903 27.7595C65.3867 25.1676 65.5215 24.8129 65.4573 27.6982L65.4573 27.6982ZM67.0692 26.1249C68.2989 26.7399 66.3947 25.8537 66.8202 26.0129C66.9036 26.0489 66.989 26.0832 67.0692 26.1249L67.0692 26.1249ZM68.2674 26.4539C68.0284 26.2767 67.9693 26.3961 68.3438 25.7623C68.3047 26.0039 68.2738 26.1574 68.2674 26.4539L68.2674 26.4539ZM70.7701 28.6614C70.7682 28.7179 70.7778 28.7092 70.7371 28.6861C70.748 28.6771 70.7615 28.6733 70.7701 28.6614L70.7701 28.6614ZM70.6829 26.8403C70.9909 26.3977 70.8947 26.2552 70.7977 27.9713C70.5853 28.2907 70.5981 28.558 70.6829 26.8403L70.6829 26.8403ZM70.2914 27.5304C70.2589 28.4011 70.3129 28.2855 70.2066 28.275C70.2301 27.8346 70.3036 27.2065 70.2914 27.5304L70.2914 27.5304ZM68.9808 27.3798C69.1175 27.4254 69.2308 27.2781 69.2263 27.134C69.2215 26.9363 69.2199 26.9122 69.2651 26.848C69.5055 26.4905 69.3479 26.6481 69.3909 27.3535C69.3983 27.4848 69.5283 27.5933 69.672 27.4906C69.6351 28.0253 69.7003 28.0837 68.9086 27.3981C68.941 27.3439 68.9221 27.3628 68.9808 27.3798L68.9808 27.3798ZM69.2911 26.1429C69.2911 26.1872 69.4329 25.3765 69.4156 25.3049C69.5363 25.3052 70.0593 25.3104 70.1328 25.311C69.733 25.6926 69.8434 25.6162 69.8036 25.5764C69.7304 25.5033 69.6171 25.5071 69.5481 25.5764C69.4833 25.6409 69.4981 25.7238 69.4628 26.0091C69.2398 26.2697 69.2789 26.243 69.2911 26.1429L69.2911 26.1429ZM66.9787 27.9771C66.5439 27.9315 66.1527 27.9065 65.7195 27.8433C65.8594 27.7611 65.8186 27.7457 65.8363 26.5784C65.8475 25.7475 65.7259 25.8634 66.2451 26.1333C66.1729 26.2507 66.2271 26.0835 66.2458 27.4764C66.2458 27.7136 66.6052 27.7123 66.6052 27.4764C66.5869 26.1131 66.4851 26.261 66.7441 26.3859C68.416 27.1902 67.9626 27.2052 69.3932 28.2397C68.4208 28.2117 69.3094 28.2361 66.9787 27.9771L66.9787 27.9771ZM41.0502 3.97287C39.653 4.57946 36.9677 6.76447 36.2055 8.2344C34.833 10.9268 33.8414 14.3369 33.6694 15.7532C33.0754 17.7441 33.4397 17.4558 32.8547 17.4302C34.2066 12.2068 34.2679 10.4226 36.5893 7.11558C39.2483 3.75976 42.0957 2.68202 45.5662 2.35402C45.7068 2.34054 46.2132 2.71316 46.3264 2.79788C43.7759 2.96991 42.2619 3.43978 41.0502 3.97287L41.0502 3.97287ZM38.2663 6.36104C38.4091 6.22399 38.3873 6.23105 38.7798 5.91235C38.2323 6.46117 38.3331 6.43742 38.2663 6.36104L38.2663 6.36104ZM33.6235 17.3589C33.6245 17.3618 33.6235 17.3657 33.6248 17.3685C33.6402 17.4141 33.6701 17.4469 33.7054 17.4693C33.5732 17.4639 33.5975 17.4863 33.6235 17.3589L33.6235 17.3589ZM33.9669 17.2697C33.9669 17.27 33.9672 17.27 33.9672 17.27C33.9724 17.3031 33.9717 17.321 33.9669 17.2697L33.9669 17.2697ZM51.3235 27.3583C51.3081 27.8276 34.8548 25.5357 26.5165 24.8068C27.0322 20.509 26.4787 23.7156 27.3762 18.3285C27.5675 17.2617 27.3457 17.4196 27.9725 17.4523C48.5413 18.5429 37.7025 19.0506 51.3781 20.2102C51.3534 22.2299 51.3851 25.4975 51.3235 27.3583L51.3235 27.3583ZM51.9717 39.6811C52.0455 39.7048 51.1156 41.861 51.4807 30.9995C51.5459 28.3308 51.5295 33.6505 51.7307 20.5783C51.7388 20.1688 51.6415 20.2343 52.0677 20.268C52.3834 20.2904 51.5684 39.5803 51.9717 39.6811L51.9717 39.6811ZM52.3674 17.2475C52.222 15.3723 52.2634 14.6232 52.3607 16.7042C52.3713 16.9372 52.3947 17.5679 52.3674 17.2475L52.3674 17.2475ZM52.6334 5.1639C53.7999 6.08374 55.3505 8.70202 55.4041 8.79959C56.7009 11.1101 57.101 17.6516 57.1232 20.3152C54.848 20.2272 54.124 20.0799 53.2829 20.0042C52.0282 19.8889 53.2634 20.8592 52.4592 12.6924C52.2066 10.2525 51.5764 8.49501 51.1762 7.45675C50.4474 5.5975 50.0842 5.1164 48.8606 3.84931C48.8269 3.81464 48.3433 3.30915 48.3921 3.31108C49.8936 3.37912 51.4743 4.2322 52.6334 5.1639L52.6334 5.1639ZM51.3826 19.8479C39.902 18.9011 44.4206 17.9209 33.8726 17.4761C34.2053 17.3307 34.9915 3.46289 46.7596 3.13616C48.023 4.14843 47.9383 4.22193 49.4119 6.46021C51.1297 9.01077 51.4201 16.7803 51.3826 19.8479L51.3826 19.8479ZM41.5177 1.21209C42.2385 1.22589 41.3752 1.34239 42.6556 1.39278C43.1591 1.42167 43.4515 1.344 44.9966 2.05329C41.0803 2.47405 38.1434 4.36475 36.2723 6.9442C33.9207 10.2609 33.7888 12.416 32.4895 17.4099C29.2009 17.2501 30.2213 17.2061 27.5973 17.0835C29.3036 9.64849 30.2653 1.21209 41.5177 1.21209L41.5177 1.21209ZM22.9545 24.7401C26.719 25.1814 25.2907 25.0151 21.5442 24.8623C18.3172 24.7246 15.4528 24.5077 19.0414 24.7121C20.3841 24.7802 20.3016 24.4451 22.9545 24.7401L22.9545 24.7401ZM14.5129 21.8939C13.8072 22.7563 13.839 22.961 14.2157 21.8117C14.2485 21.7126 14.1791 21.6086 14.0713 21.5922C14.1358 21.5283 14.227 21.4414 14.2722 21.3849C14.7183 21.2973 14.647 21.1881 14.5129 21.8939L14.5129 21.8939ZM15.1216 22.7152C14.9153 23.0788 14.7077 23.4376 14.4657 23.9653C14.3476 24.2012 14.7657 24.0734 13.5845 23.9878C13.4619 23.9794 13.3852 24.1059 13.864 23.3622C14.018 23.1231 14.1901 22.8936 14.3611 22.6638C14.3463 22.7361 14.2725 23.1077 14.2006 23.4081C13.9006 23.4348 14.07 23.9987 14.3303 23.9245C14.6072 23.8436 14.7221 22.1956 14.9474 21.9221C15.0234 21.8397 15.0135 21.7353 14.9474 21.6696C14.9143 21.6365 14.8989 21.7556 14.9984 21.2799C15.0119 21.2141 14.9429 21.2446 15.3867 21.1718C15.2972 21.3149 15.1512 22.5104 15.1216 22.7152L15.1216 22.7152ZM15.6742 21.1535C15.6521 21.1217 15.5898 21.1333 15.6919 21.1124C15.6855 21.1262 15.6774 21.1384 15.6742 21.1535L15.6742 21.1535ZM14.8787 24.1591C14.7305 24.1373 14.7516 24.2018 14.9625 23.7827C14.9397 23.911 14.8697 24.1203 14.8787 24.1591L14.8787 24.1591ZM16.0384 21.0347C16.0368 21.0472 16.0365 21.0601 16.0346 21.0726C16.0295 21.0768 16.0211 21.0752 16.0163 21.08C16.0048 21.0922 16.0064 21.1098 15.9993 21.1236C15.9662 21.0373 15.9489 21.0598 16.0384 21.0347L16.0384 21.0347ZM15.7901 24.0311C15.7942 24.0324 15.7958 24.0378 15.8 24.0388C15.8526 24.0523 15.9072 24.0336 15.9524 24.0019C16.0092 24.3129 16.0712 24.2557 15.8218 24.2461C15.7163 24.2429 15.758 24.2724 15.7901 24.0311L15.7901 24.0311ZM15.5812 22.6423C15.3963 25.2754 15.2734 23.7191 15.4024 24.2098C15.3405 24.2041 15.2779 24.2005 15.2157 24.1938C15.3989 23.8879 15.3167 23.084 15.5812 22.6423L15.5812 22.6423ZM15.5995 21.8689C15.6447 21.5652 15.6351 21.6618 15.6219 21.9077C15.576 21.9761 15.5792 21.9976 15.5995 21.8689L15.5995 21.8689ZM14.7115 18.2431C14.1647 17.5085 14.0091 16.7953 13.5303 16.1765C13.6808 16.1782 15.206 18.4739 15.2856 18.6032C15.7602 19.3799 15.7682 19.551 15.9855 20.1146C15.1534 18.6042 15.4817 19.2127 14.7115 18.2431L14.7115 18.2431ZM13.8268 21.8499C13.675 22.3137 13.4128 23.1462 13.358 23.2958C13.236 23.342 13.2091 23.4884 13.2941 23.5866C13.0005 24.0548 13.2087 23.9794 12.4979 23.9226C12.952 23.2245 13.2447 22.5149 13.8268 21.8499L13.8268 21.8499ZM2.01793 22.8144C2.04585 22.8279 2.05644 22.8259 1.99066 22.8205C1.99964 22.8182 2.00895 22.8163 2.01793 22.8144L2.01793 22.8144ZM24.808 37.3651C25.0558 37.2721 24.8591 37.3026 24.965 37.4662C25.0304 37.5824 25.1967 37.5407 24.9592 37.6094C24.1524 37.8661 22.9978 37.5625 22.5954 36.7242C22.341 35.9921 22.7556 34.708 23.2475 34.3823C21.9966 35.7578 23.0915 38.1149 24.808 37.3651L24.808 37.3651ZM25.574 37.3398C25.395 37.4383 25.4909 37.3863 25.5798 37.2698C25.8917 36.8953 25.8587 36.747 25.9979 36.6773C26.1401 36.6395 26.2203 36.4796 26.2864 36.3465C26.4767 36.2531 26.496 35.3862 26.461 35.0546C26.3461 34.4567 25.9049 34.226 26.1706 34.4192C27.1468 35.2254 26.5515 36.7935 25.574 37.3398L25.574 37.3398ZM24.9104 35.9883C24.9101 35.9883 24.9098 35.9886 24.9095 35.9886C24.9062 35.9934 24.9027 35.9979 24.8992 36.0024C24.9021 35.9985 24.905 35.994 24.9082 35.9899C24.8491 36.0316 24.9582 35.9257 24.9098 35.9886C24.9098 35.9886 24.9101 35.9883 24.9104 35.9883L24.9104 35.9883ZM25.0872 35.556C25.0298 35.8666 24.9441 35.9924 24.7551 36.0775C24.6017 36.1298 24.3565 36.2039 24.223 36.1122C24.1332 36.03 23.8781 34.9426 24.9788 28.5121C27.0354 16.5273 26.1565 17.375 27.0293 17.4099C26.6118 20.8107 26.2312 21.2164 25.807 25.4599C25.4033 29.2378 25.7111 27.5862 25.3157 30.7379C24.8915 34.1329 25.0019 33.948 25.1652 33.9756C25.0112 35.2382 24.9858 35.174 25.0689 35.2655C25.1408 35.3374 25.1482 35.2109 25.0872 35.556L25.0872 35.556ZM30.608 25.8239C30.377 25.8239 29.6091 25.6294 26.4623 25.2571C26.4973 24.9888 27.4898 25.3803 30.3054 25.5177C30.5342 25.5289 32.0736 25.5999 32.3011 25.63C32.2292 25.5581 32.5007 25.7497 34.3055 25.9699C40.8165 26.9 41.4693 26.7771 41.6599 26.8503C41.4898 26.8397 43.3985 27.1751 44.5676 27.2919C51.793 28.0663 51.3091 27.5326 51.2876 28.0005C48.2891 27.9591 40.8672 27.212 40.7187 27.1853C32.5113 25.8171 37.7561 26.7412 30.608 25.8239L30.608 25.8239ZM51.1002 38.4477C51.2449 40.4263 51.929 40.4507 52.2666 39.9157C52.3953 39.7013 52.5481 38.9044 52.4159 38.7436C52.4643 38.7337 52.5012 38.7073 52.5288 38.6659C52.7676 38.8238 52.8141 38.9253 52.8635 39.0244C52.7307 39.4372 53.0137 39.6859 52.5741 40.1394C52.2329 40.4048 51.9226 40.2395 51.6483 40.417C51.2099 40.6847 49.7732 39.7539 51.1002 38.4477L51.1002 38.4477ZM53.6558 39.4779C53.5794 39.4134 53.5143 39.4186 53.4222 39.4596C53.3041 39.544 53.3198 39.667 53.3324 38.7914C53.3359 38.6679 53.1928 38.5498 53.0525 38.6541C52.713 38.233 52.5548 38.4233 52.5157 38.0513C53.0737 38.3013 53.5287 38.6528 53.6558 39.4779L53.6558 39.4779ZM68.9567 28.7686C52.5211 27.2742 52.4566 28.4842 52.4759 27.8054C53.6013 27.7704 53.436 27.8247 54.5492 27.8507C58.7967 27.9579 59.812 27.2871 68.6095 28.5442C69.7612 28.7259 70.0478 28.4094 70.2881 28.9448C70.0735 28.9085 69.9522 28.8649 68.9567 28.7686L68.9567 28.7686ZM70.6995 39.5235C70.8247 36.8998 70.7759 39.363 70.5442 42.1421C70.1797 42.5462 70.567 42.0798 70.6995 39.5235L70.6995 39.5235ZM70.0398 49.4054C70.0346 48.2786 70.266 43.7918 70.2699 43.7176C70.3472 42.3825 70.3257 42.715 70.5009 42.6704C69.9002 49.9552 70.068 57.105 70.0398 49.4054L70.0398 49.4054ZM83.7006 24.3514C83.81 24.3405 84.428 41.8571 84.3857 53.374C84.3237 70.6656 85.9754 74.6367 86.4565 77.8805C84.2207 77.5769 83.6088 78.0426 82.2757 78.0426C75.6857 78.1029 75.4518 78.1876 70.1104 76.0719C69.3376 75.7436 69.4394 75.7436 69.3264 75.8001C68.056 75.4821 68.7995 77.4934 69.7198 63.1445C69.9936 58.6837 70.008 56.8886 69.7814 66.4756C69.7147 68.7271 69.0774 74.499 69.4926 74.499C69.7304 74.499 69.6653 74.4034 69.7956 71.7058C69.9859 67.8599 70.0873 69.3975 70.1579 64.9624C70.2634 57.6987 70.5635 56.3546 70.7223 53.3778C70.8626 69.1918 69.5889 73.9595 70.3934 73.5304C70.757 73.3064 71.0894 54.5281 71.0891 54.4453C71.4193 54.5544 70.9861 54.3217 73.8659 51.0657C75.9575 48.7013 76.0567 48.2593 78.579 46.0519C78.6508 45.9883 78.6448 45.8648 78.579 45.7993C78.0957 45.3159 71.8429 52.7481 71.0859 54.0354C71.0679 50.5849 71.1257 50.3445 70.8119 50.4495C70.8853 45.3326 70.946 46.853 71.0089 43.4269C71.0413 41.6196 70.7092 42.5824 72.9144 40.0325C75.7063 36.7473 75.0927 37.117 79.2217 32.1045C81.4254 29.3864 83.3447 27.5291 83.3447 27.349C83.3447 25.6528 75.5105 36.6026 71.0419 41.5865C71.0833 39.3974 71.1347 38.621 71.1941 37.5144C71.2053 37.3122 77.1725 28.9217 80.1546 25.8698C80.9915 25.0328 81.4433 24.9114 81.2155 24.6739C80.428 23.9518 71.9918 35.667 71.3657 36.5631C71.0644 36.9871 71.3763 36.9248 71.5201 32.2515C74.4182 27.738 76.5175 25.6759 76.5175 25.5299C76.5175 25.3627 76.3128 25.2972 76.2107 25.4034C75.4341 26.2225 72.9972 29.3074 71.5426 31.5521C71.5772 29.5799 71.626 29.5096 71.3972 29.4994C73.4952 26.036 74.7612 25.9189 74.4294 25.5874C74.1191 25.2767 72.5807 27.1654 72.313 27.5134C70.9864 29.2192 71.393 29.1486 71.1263 28.9345C71.1443 28.3035 70.8635 28.1366 72.4382 26.3223C72.8457 25.8508 72.9359 25.8457 72.9359 25.7122C72.9359 25.5492 72.736 25.4782 72.6317 25.5867C70.93 27.3587 71.1267 28.1626 71.2688 26.244C71.2691 26.2411 71.2691 26.2386 71.2691 26.2357C71.2691 26.1888 71.2467 26.1468 71.2133 26.1159C71.263 26.0511 71.8532 25.3935 71.8866 25.3126C72.7992 25.2914 72.8945 25.2488 74.7641 25.0735C76.366 24.9146 77.1086 25.0636 79.335 24.7898C82.5857 24.4056 82.7048 24.69 82.872 24.4274C82.9477 24.2952 83.1018 24.4114 83.7006 24.3514L83.7006 24.3514ZM86.5107 78.2505C86.5617 78.6559 86.6198 78.5628 86.2167 78.5712C81.2681 78.6588 83.3251 78.8857 78.1916 78.3889C77.5768 78.3263 79.5256 78.3776 81.0098 78.3934C83.8979 78.3934 84.7284 77.9209 86.5107 78.2505L86.5107 78.2505ZM72.1959 77.3445C72.0098 77.2871 71.8872 77.2813 72.4453 77.3467C73.8457 77.8718 74.4785 78.0467 72.1959 77.3445L72.1959 77.3445ZM70.8626 78.2833C70.7538 78.274 70.6758 78.351 70.6697 78.4576C70.6649 78.568 70.7156 78.4813 70.3655 78.9486C70.2731 79.0712 70.2769 79.1601 70.3703 78.506C70.4011 78.2306 70.2849 78.6126 70.3533 77.9444C70.5673 77.9781 70.8619 78.0721 70.989 78.1132C70.9466 78.1697 70.9046 78.2265 70.8626 78.2833L70.8626 78.2833ZM70.1575 81.1204C70.231 79.5054 70.1957 79.7635 70.3963 79.499C70.7307 79.0612 70.6565 78.7798 70.5965 80.632C70.4502 80.7947 70.3039 80.958 70.1575 81.1204L70.1575 81.1204ZM70.5394 82.333C69.9172 83.0416 70.0725 83.0933 70.1206 81.9366C70.1335 81.6529 70.0982 81.7229 70.2705 81.5322C70.6925 81.0624 70.576 80.9099 70.5394 82.333L70.5394 82.333ZM70.912 81.9084C70.9499 80.5819 70.6694 81.0662 72.2643 79.2978C72.2351 80.7331 72.5428 80.0421 70.912 81.9084L70.912 81.9084ZM70.8536 84.2882C70.8937 82.1093 70.5667 82.781 72.246 80.9353C72.2318 83.1735 72.5585 82.3641 70.8536 84.2882L70.8536 84.2882ZM70.0167 84.1601C70.0651 83.3115 70.0009 83.4823 70.1999 83.2612C70.6498 82.755 70.5198 82.5432 70.4874 84.5915C70.4849 84.7269 70.5324 84.6557 70.2012 85.0244C69.8504 85.4163 69.9454 85.5219 70.0167 84.1601L70.0167 84.1601ZM68.8739 85.1092C68.9388 84.5876 68.7844 84.8367 69.6637 83.862C69.5424 86.1875 69.7426 85.4738 68.7051 86.7229C68.648 86.7954 68.5996 87.2906 68.8739 85.1092L68.8739 85.1092ZM70.7701 76.9658C70.6155 76.9234 70.1864 76.7989 70.1149 76.7777C70.1068 76.6022 69.9137 76.5601 69.8119 76.658C69.785 76.6843 69.7904 76.6596 69.7497 76.6375C69.724 76.4462 69.4833 76.4446 69.4214 76.5938C69.0341 76.5553 68.932 76.5489 68.7892 76.089C69.5462 76.3188 70.3344 76.6798 70.4945 76.6073C71.6735 77.0608 70.9954 76.7251 70.7701 76.9658L70.7701 76.9658ZM69.6608 79.8752C69.5902 79.9689 69.7779 78.4765 69.6916 78.2807C69.7028 78.2088 69.6611 78.3157 69.9955 77.9338C69.8966 78.9884 69.863 79.6133 69.6608 79.8752L69.6608 79.8752ZM68.9956 78.8006C68.9988 78.8071 69.0045 78.8109 69.0078 78.817C68.959 79.0799 68.9606 79.0898 68.9956 78.8006L68.9956 78.8006ZM69.1878 76.9282C69.1047 77.1118 69.1258 77.1551 69.1348 76.9186C69.19 76.9266 69.1727 76.9247 69.1878 76.9282L69.1878 76.9282ZM69.863 77.5255C69.845 77.5239 69.8273 77.5223 69.8094 77.521C69.7689 77.3204 69.6194 77.4292 69.6313 77.3628C69.6723 77.3163 69.6489 77.3179 69.7632 77.3962C69.9018 77.4876 69.9297 77.452 69.863 77.5255L69.863 77.5255ZM69.578 80.7851C69.5953 80.5286 69.5729 80.5973 69.6653 80.4741C69.5209 81.3936 69.535 81.4109 69.578 80.7851L69.578 80.7851ZM69.7137 83.0484C69.6996 83.352 69.7949 83.1681 69.0065 84.061C69.1586 82.8616 69.0671 83.197 69.2244 83.2441C69.7224 83.3937 69.8232 80.7722 69.7137 83.0484L69.7137 83.0484ZM71.246 77.7848C70.4958 77.4607 70.2551 77.3512 71.3969 77.5926C71.3462 77.6565 71.2958 77.7203 71.246 77.7848L71.246 77.7848ZM67.5444 83.5484C69.1557 74.5503 68.1256 76.7674 68.7783 76.8663C68.5986 81.226 67.1584 87.2826 66.8388 91.6857C66.4258 97.3048 66.5144 89.1951 67.5444 83.5484L67.5444 83.5484ZM69.871 86.5659C69.922 85.7928 69.7747 86.0377 70.4566 85.2799C70.4939 85.2382 70.4797 85.0845 70.4701 86.382C69.6704 87.222 69.8273 87.2127 69.871 86.5659L69.871 86.5659ZM70.833 85.9966C70.844 84.5424 70.5699 85.1544 72.2325 83.274C72.2306 84.9282 72.5823 84.1393 70.833 85.9966L70.833 85.9966ZM86.9494 78.9974C87.0251 79.0115 86.7299 77.3387 86.6788 77.099C83.8453 64.1276 85.2184 56.1161 84.4024 31.3615C84.1354 22.7146 84.1344 23.929 83.6967 23.9922C83.5738 24.0051 83.6778 23.9075 83.5478 23.8446C83.3858 23.7663 83.3177 23.7785 83.0726 23.68C82.1259 23.2374 81.2954 23.0901 80.7579 23.0474C79.0805 22.9171 79.0902 22.7807 78.1024 22.6626C77.5976 22.6038 76.3314 22.5271 76.1292 22.4915C73.6522 22.1375 72.8926 21.7845 71.5929 21.5482C71.5191 21.5344 65.2346 20.8434 65.4092 20.8434C57.5952 19.7933 58.514 21.3534 58.4697 18.999C58.4312 16.5521 57.9938 11.7562 56.9739 9.35611C56.4015 8.02418 55.0604 5.81864 54.6837 5.3446C54.2418 4.80894 53.1995 4.13655 52.6228 3.84417C50.8929 2.48079 49.419 1.81611 47.0148 1.89089C46.2157 1.90983 45.252 -0.918678 38.0536 0.308943C33.3736 1.0959 29.7284 5.01884 28.2995 9.37408C28.0626 10.0731 27.6349 12.019 27.2158 13.6693C26.2069 17.5582 26.5419 17.0287 25.9514 17.0088C24.1361 16.9048 24.8825 16.8217 21.2274 16.5678C18.4423 16.3688 19.095 15.8662 13.3567 15.8155C12.7566 15.8155 12.859 21.0492 13.0865 21.1936C2.43382 22.1057 7.47037 21.9809 5.42206 22.0374C5.08607 22.0547 3.71454 22.0573 2.71044 22.2787C0.434283 22.7803 0.746199 22.6622 0.692288 22.7345C0.557509 22.7675 0.504881 22.9216 0.606607 23.0236C0.729512 23.1462 0.474396 24.7628 0.415029 27.4813C0.303034 32.5647 0.613667 31.7187 0.249443 47.9949C-0.282611 71.8528 0.218316 73.1459 0.113702 86.2187C-0.111892 86.3394 0.137128 86.6751 0.302713 86.6074C0.358229 86.5836 0.275436 86.5746 0.569703 86.686C1.25772 86.9771 1.87577 87.0121 2.78713 87.2249C10.6579 89.1143 4.10796 87.5574 11.5336 88.9432C28.1146 92.0445 8.78543 89.5928 46.5677 93.0895C50.8338 93.5019 61.8815 95.468 65.3658 95.6022C65.5208 95.607 65.7236 95.643 65.8575 95.6625C65.9496 95.7752 66.0176 95.7165 66.2608 95.7367C66.352 95.7537 66.4842 95.9357 66.8725 95.79C67.0689 95.7165 76.3827 88.1508 76.4058 88.1306C79.4063 85.538 80.3709 85.0899 83.3139 82.6956C84.5519 81.6776 84.5301 81.4029 85.9299 80.329C85.807 80.3903 86.7 79.7766 86.7722 79.7112C87.0334 79.4778 86.9808 79.3716 86.9494 78.9974L86.9494 78.9974Z" transform="translate(-6.6226557E-06 0.117049746)" id="Fill-9" fill="#000000" fill-rule="evenodd" stroke="none" />
      </g>
    </g>
    <path d="M0.155964 0.144036C0.124872 0.138639 0.1166 0.138639 0.154823 0.144036C0.155108 0.144036 0.155679 0.144036 0.155964 0.144036" transform="translate(74.857376 21.857988)" id="Fill-12" fill="#000000" fill-rule="evenodd" stroke="none" />
    <path d="M0.149041 0.142864C0.144762 0.142296 0.140484 0.141728 0.136205 0.14116C0.137916 0.141444 0.14733 0.142864 0.149041 0.142864" transform="translate(18.857376 15.857988)" id="Fill-14" fill="#000000" fill-rule="evenodd" stroke="none" />
    <path d="M0.152464 0.14045C0.151038 0.14045 0.134208 0.14329 0.132782 0.143574C0.139913 0.142722 0.146474 0.141586 0.152464 0.14045" transform="translate(1.857377 24.857988)" id="Fill-16" fill="#000000" fill-rule="evenodd" stroke="none" />
    <path d="M0.14043 0.128809C0.14642 0.16914 0.146135 0.161188 0.14043 0.127957L0.14043 0.128809Z" transform="translate(51.857376 39.857986)" id="Fill-18" fill="#000000" fill-rule="evenodd" stroke="none" />
    <path d="M0.14191 0.14258C0.142195 0.14258 0.143336 0.141728 0.143336 0.141444C0.143051 0.142012 0.14248 0.142296 0.14191 0.14258Z" transform="translate(24.857376 34.857986)" id="Fill-20" fill="#000000" fill-rule="evenodd" stroke="none" />
    <path d="M0.142766 0.142012C0.142766 0.142012 0.142766 0.142012 0.142766 0.142296C0.142766 0.142012 0.142766 0.142012 0.14248 0.141728L0.142766 0.142012Z" transform="translate(24.857376 35.857986)" id="Fill-22" fill="#000000" fill-rule="evenodd" stroke="none" />
    <path d="M0.142052 0.142864C0.141767 0.143148 0.143479 0.140876 0.143193 0.14116L0.142052 0.142864Z" transform="translate(23.857376 34.857986)" id="Fill-24" fill="#000000" fill-rule="evenodd" stroke="none" />
    <path d="M0.141339 0.141586C0.142195 0.14187 0.143051 0.142154 0.143907 0.142438C0.143336 0.142154 0.14191 0.14187 0.141339 0.141586" transform="translate(51.857376 39.857986)" id="Fill-26" fill="#000000" fill-rule="evenodd" stroke="none" />
    <path d="M0.14191 0.136331C0.142195 0.140024 0.142766 0.144 0.143336 0.147692C0.142766 0.141444 0.143336 0.145704 0.14191 0.136331" transform="translate(26.857376 34.857986)" id="Fill-28" fill="#000000" fill-rule="evenodd" stroke="none" />
    <path d="M0.146331 0.142438C0.143764 0.142154 0.141197 0.14187 0.138915 0.141586C0.143764 0.142438 0.141482 0.142154 0.146331 0.142438" transform="translate(24.857376 36.857986)" id="Fill-30" fill="#000000" fill-rule="evenodd" stroke="none" />
    <path d="M0.142766 0.142154C0.143051 0.142438 0.143336 0.143006 0.143336 0.143574C0.143051 0.142438 0.14248 0.141586 0.14191 0.14045C0.142195 0.141018 0.14248 0.141586 0.142766 0.142154" transform="translate(50.857376 39.857986)" id="Fill-32" fill="#000000" fill-rule="evenodd" stroke="none" />
    <path d="M0.0684471 0.994002C0.171702 1.05273 0.218012 0.658702 0.195921 0.747586C0.254994 0.436888 0.336813 0.167854 0.241739 0.0361153C0.11852 -0.128559 0.0776108 0.299594 0.00397381 0.71981C-0.010099 0.806313 0.0136284 0.952734 0.0684471 0.994002" transform="translate(7.857377 24)" id="Fill-34" fill="#000000" fill-rule="evenodd" stroke="none" />
    <path d="M0.139343 0.14613C0.141625 0.14329 0.143907 0.14045 0.145903 0.137893C0.140484 0.144142 0.143907 0.140166 0.139343 0.14613" transform="translate(13.857377 21.857988)" id="Fill-36" fill="#000000" fill-rule="evenodd" stroke="none" />
    <path d="M0.414513 0.921415C0.816438 0.336593 1.19924 0.16423 0.883356 0.0248284C0.633556 -0.0773795 0.501798 0.154554 0.291068 0.381649C-0.400557 1.16242 0.348842 1.0203 0.414513 0.921415" transform="translate(13 19)" id="Fill-38" fill="#000000" fill-rule="evenodd" stroke="none" />
    <path d="M0.138059 0.147834C0.141197 0.144142 0.144049 0.14045 0.147187 0.136189C0.141197 0.14329 0.140911 0.143858 0.138059 0.147834" transform="translate(72.857376 26.857988)" id="Fill-40" fill="#000000" fill-rule="evenodd" stroke="none" />
    <path d="M6.68172 0.049157C3.71978 2.38925 -0.276212 7.83647 0.0150566 7.99137C0.470841 8.22357 2.71922 3.72266 6.94015 0.283136C7.11157 0.157079 6.88006 -0.109901 6.68172 0.049157" transform="translate(73 25)" id="Fill-42" fill="#000000" fill-rule="evenodd" stroke="none" />
    <path d="M8.74633 0.051459C8.49228 0.327782 0 12.7153 0 12.8078C0 13.72 1.24531 11.3402 4.56606 6.62318C7.39157 2.54765 7.75533 1.58934 8.95524 0.297767C9.08672 0.14893 8.9017 -0.110683 8.74633 0.051459" transform="translate(73 26)" id="Fill-44" fill="#000000" fill-rule="evenodd" stroke="none" />
    <path d="M0.13378 0.153515C0.140626 0.146414 0.146331 0.138178 0.151466 0.130509C0.143479 0.141018 0.142908 0.141586 0.13378 0.153515" transform="translate(78.857376 28.857988)" id="Fill-46" fill="#000000" fill-rule="evenodd" stroke="none" />
    <path d="M7.4572 4.6908C5.80102 6.5644 1.82301 10.4636 0.0301944 12.7464C-0.0950862 12.9125 0.19953 13.1178 0.364391 12.9167C1.86776 11.008 12 0.353639 12 0.174373C12 -0.803497 9.37565 2.5549 7.4572 4.6908" transform="translate(73 30)" id="Fill-48" fill="#000000" fill-rule="evenodd" stroke="none" />
    <path d="M0.135064 0.152095C0.140769 0.145846 0.145333 0.139314 0.150182 0.131929C0.144192 0.139598 0.141625 0.142722 0.135064 0.152095" transform="translate(72.857376 43.857986)" id="Fill-50" fill="#000000" fill-rule="evenodd" stroke="none" />
    <path d="M0.135349 0.151527C0.137061 0.149254 0.139057 0.146982 0.140769 0.14471C0.143907 0.140734 0.147044 0.136473 0.149897 0.132497C0.145048 0.13903 0.139628 0.145562 0.135349 0.151527" transform="translate(78.857376 36.857986)" id="Fill-52" fill="#000000" fill-rule="evenodd" stroke="none" />
    <path d="M0.144192 0.140024C0.143051 0.14116 0.142195 0.14258 0.141054 0.144C0.14191 0.142864 0.142766 0.142012 0.143336 0.140876C0.143621 0.140592 0.143907 0.140308 0.144192 0.140024" transform="translate(77.857376 39.857986)" id="Fill-54" fill="#000000" fill-rule="evenodd" stroke="none" />
    <path d="M8.72892 0.0566338C7.53899 1.35217 7.40933 1.88051 5.37309 4.76375C0.629899 11.538 -0.496739 13.1773 0.17986 12.9854C0.242591 12.9631 7.83024 1.49792 8.95184 0.325188C9.09159 0.176066 8.89947 -0.125214 8.72892 0.0566338" transform="translate(71 36)" id="Fill-56" fill="#000000" fill-rule="evenodd" stroke="none" />
    <path d="M7.67176 0.057991C5.74878 2.23751 2.00178 5.90587 0.0310314 8.72393C-0.0978317 8.90996 0.206285 9.12628 0.364357 8.90898C2.21655 6.24046 6.11268 2.40464 7.9422 0.314386C8.12879 0.122823 7.81643 -0.110441 7.67176 0.057991" transform="translate(72 41)" id="Fill-58" fill="#000000" fill-rule="evenodd" stroke="none" />
    <path d="M0.133352 0.154083C0.140198 0.146698 0.146189 0.138746 0.151893 0.129941C0.143336 0.140734 0.144762 0.138746 0.133352 0.154083" transform="translate(72.857376 55.857986)" id="Fill-60" fill="#000000" fill-rule="evenodd" stroke="none" />
    <path d="M0.0267369 6.68937C-0.0871593 6.90274 0.191425 7.14062 0.325638 6.89725C0.865875 5.88825 1.80629 4.49206 3.31711 2.30024C4.72049 0.239434 5 0.507327 5 0.203568C5 -1.28412 0.483553 5.84178 0.0267369 6.68937" transform="translate(72 50)" id="Fill-62" fill="#000000" fill-rule="evenodd" stroke="none" />
    <path d="M0.13592 0.151243C0.140769 0.144994 0.145048 0.138746 0.149326 0.132781C0.149041 0.133349 0.144762 0.13903 0.13592 0.151243" transform="translate(72.857376 56.857986)" id="Fill-64" fill="#000000" fill-rule="evenodd" stroke="none" />
    <path d="M4.9564 0.0180534C4.55245 -0.337051 -0.568949 4.6605 0.0521774 4.96979C0.292158 5.09611 0.357311 4.81801 0.773929 4.29044C3.20704 1.24374 5.33356 0.349612 4.9564 0.0180534" transform="translate(72 54)" id="Fill-66" fill="#000000" fill-rule="evenodd" stroke="none" />
    <path d="M0.133638 0.153657C0.140484 0.146272 0.146189 0.138888 0.151608 0.130367C0.139913 0.145136 0.146189 0.136899 0.133638 0.153657" transform="translate(72.857376 59.857986)" id="Fill-68" fill="#000000" fill-rule="evenodd" stroke="none" />
    <path d="M3.69469 0.0529434C3.28122 0.502274 -0.473341 4.65337 0.0499039 4.968C0.274883 5.10334 0.294725 4.82014 0.94598 3.91314C2.97975 1.09529 4 0.421131 4 0.176421C4 0.0128532 3.7955 -0.0564225 3.69469 0.0529434" transform="translate(73 56)" id="Fill-70" fill="#000000" fill-rule="evenodd" stroke="none" />
    <path d="M0.13649 0.150391C0.140769 0.144994 0.145048 0.139598 0.148756 0.133633C0.144477 0.139314 0.140769 0.144426 0.13649 0.150391" transform="translate(72.857376 61.857986)" id="Fill-72" fill="#000000" fill-rule="evenodd" stroke="none" />
    <path d="M1.8148 0.0504322C1.14192 1.07622 0.551216 2.16249 0.0161299 3.72917C-0.056158 3.93977 0.133961 4.11132 0.202761 3.91096C1.28592 0.756799 2.17953 0.398015 1.96907 0.0504322C1.92507 -0.0196604 1.85899 -0.0138994 1.8148 0.0504322" transform="translate(73 59)" id="Fill-74" fill="#000000" fill-rule="evenodd" stroke="none" />
    <path d="M0.135492 0.151669C0.148328 0.137183 0.141767 0.142864 0.149754 0.132355C0.144905 0.138604 0.140341 0.14542 0.135492 0.151669" transform="translate(72.857376 65.85799)" id="Fill-76" fill="#000000" fill-rule="evenodd" stroke="none" />
    <path d="M0.897169 3.4034C0.920148 3.11333 1.01371 2.01452 1.01371 2.09183C1.01371 1.92713 0.80197 1.85049 0.700533 1.96377C0.569553 2.09822 0.0357817 9.42246 0 10.8137C0 11.0594 0.367665 11.0648 0.367665 10.8137C0.410341 9.18784 0.614526 6.33747 0.698236 6.38823C1.02716 6.58083 0.90636 5.96975 2.24309 4.29784C2.55856 3.89987 3.10644 3.45315 3.10644 3.32878C3.10644 3.16106 2.91867 3.07467 2.79426 3.19232C0.19565 5.67799 0.598441 7.59963 0.856135 3.96239C1.07772 4.00003 1.00977 3.85516 1.40763 3.26559C2.88716 1.06227 4 0.424969 4 0.181276C4 -0.793161 1.45425 2.43267 0.897169 3.4034" transform="translate(69 63)" id="Fill-78" fill="#000000" fill-rule="evenodd" stroke="none" />
    <path d="M0.84526 1.89419C0.649157 1.89419 0.616426 2.45261 0.697697 1.47661C0.816413 0.273735 1.01557 0.0854893 0.782574 0.00506355C0.406454 -0.121019 0.351811 2.14495 0.334614 2.62189C-0.361874 3.93258 0.235591 3.79596 0.294672 3.57154C0.31603 3.48971 0.281913 3.65478 0.256117 5.05854C0.22727 6.77734 0.190102 7 0.394527 7C0.60755 7 0.532104 6.83388 0.561784 5.37779C0.618645 2.42275 0.574265 2.84315 0.954546 2.22924C1.06134 2.0568 0.96148 1.89419 0.84526 1.89419" transform="translate(73 67)" id="Fill-80" fill="#000000" fill-rule="evenodd" stroke="none" />
    <path d="M0.686314 2.34092C0.380913 2.61139 0.427973 2.7487 0.485094 1.97484C0.580186 0.769661 0.75382 0.325538 0.75382 0.169157C0.75382 -0.0447132 0.432517 -0.0506706 0.400062 0.122391C0.286145 0.659152 -0.340558 5 0.249471 5C0.525987 5 0.36923 4.89932 0.424728 3.03823C0.504891 2.99772 0.343915 3.11717 0.944655 2.57534C1.11115 2.42879 0.865789 2.18246 0.686314 2.34092" transform="translate(73 69)" id="Fill-82" fill="#000000" fill-rule="evenodd" stroke="none" />
    <path d="M6.70539 0.0507045C3.9856 2.49016 1.22316 5.37883 0.0540926 6.69075C-0.118825 6.8835 0.165463 7.10617 0.310375 6.94399C5.3963 1.25193 7.28992 0.372812 6.9646 0.0507045C6.89036 -0.0197666 6.77931 -0.0139744 6.70539 0.0507045" transform="translate(68 84)" id="Fill-84" fill="#000000" fill-rule="evenodd" stroke="none" />
    <path d="M0.0482711 4.7081C-0.0212176 4.78999 -0.0107507 4.88216 0.0482711 4.94175C0.224464 5.11962 0.227081 4.94145 1.42932 3.68105C5.02413 -0.108379 5 0.289936 5 0.119985C5 -0.874777 0.104676 4.64088 0.0482711 4.7081" transform="translate(68 88)" id="Fill-86" fill="#000000" fill-rule="evenodd" stroke="none" />
    <path d="M0.368761 0.923777C0.776341 0.382326 1 0.257438 1 0.15796C1 0.0592933 0.881137 -0.0239653 0.747153 0.00631055C0.608245 0.037938 0.0941107 0.685625 0.0304594 0.770235C-0.103877 0.947836 0.242162 1.09543 0.368761 0.923777" transform="translate(19 18)" id="Fill-88" fill="#000000" fill-rule="evenodd" stroke="none" />
    <path d="M0.406756 1.92816C1.67634 0.276572 2.26602 0.166033 1.88604 0.0215032C1.78881 -0.0171593 1.6654 -0.00600169 1.58534 0.0739181C1.05072 0.571081 0.56765 1.07292 0.0310757 1.78078C-0.114979 1.96864 0.295067 2.08177 0.406756 1.92816" transform="translate(19 18)" id="Fill-90" fill="#000000" fill-rule="evenodd" stroke="none" />
    <path d="M0.964347 3.39732C0.0545806 4.70407 -0.143482 4.84275 0.0895716 4.98175C0.455987 5.17357 0.826033 3.85126 3.18198 1.1075C3.83196 0.341854 4.13697 0.216784 3.94155 0.024643C3.58174 -0.32821 1.08582 3.22202 0.964347 3.39732" transform="translate(20 17)" id="Fill-92" fill="#000000" fill-rule="evenodd" stroke="none" />
    <path d="M0.136633 0.14897C0.140911 0.144426 0.144905 0.139882 0.148613 0.135053C0.147757 0.136473 0.137489 0.147834 0.136633 0.14897" transform="translate(24.857376 18.857988)" id="Fill-94" fill="#000000" fill-rule="evenodd" stroke="none" />
    <path d="M1.54025 0.0609546C0.734977 0.801986 0.376915 1.23268 0.0395757 1.67964C-0.137287 1.92526 0.32535 2.13304 0.507514 1.89499C1.41881 0.66536 2 0.426172 2 0.210069C2 0.00267131 1.67567 -0.0593967 1.54025 0.0609546" transform="translate(28 18)" id="Fill-96" fill="#000000" fill-rule="evenodd" stroke="none" />
    <path d="M0.135634 0.150675C0.140769 0.144994 0.145333 0.139598 0.149611 0.133349C0.14248 0.14187 0.140769 0.143858 0.135634 0.150675" transform="translate(28.857376 18.857988)" id="Fill-98" fill="#000000" fill-rule="evenodd" stroke="none" />
    <path d="M0.0114093 1.92403C0.325349 2.2681 0.409006 1.38243 1.5732 0.494185C1.98479 0.167254 2 0.182679 2 0.114765C2 -0.518103 -0.175677 1.66073 0.0114093 1.92403" transform="translate(28 19)" id="Fill-100" fill="#000000" fill-rule="evenodd" stroke="none" />
    <path d="M0.139057 0.146414C0.141625 0.143574 0.144192 0.14045 0.146189 0.137609C0.140484 0.144426 0.140198 0.144994 0.139057 0.146414" transform="translate(30.857376 18.857988)" id="Fill-102" fill="#000000" fill-rule="evenodd" stroke="none" />
    <path d="M1.94539 0.0335353C1.88833 -0.00932281 1.78372 -0.0129964 1.72911 0.0335353C1.471 0.247418 -0.291792 1.83256 0.0418559 1.97929C0.221993 2.05787 0.230416 1.93358 0.85451 1.24397C1.86089 0.137619 2.13123 0.17313 1.94539 0.0335353" transform="translate(33 19)" id="Fill-104" fill="#000000" fill-rule="evenodd" stroke="none" />
    <path d="M0.0338646 1.8261C-0.0782769 1.95405 0.117718 2.05138 0.192883 1.97037C0.81542 1.24797 1.22418 0.778575 1.9728 0.160026C2.02372 0.117799 2.21325 -0.702463 0.0338646 1.8261" transform="translate(37 19)" id="Fill-106" fill="#000000" fill-rule="evenodd" stroke="none" />
    <path d="M0.137889 0.147688C0.158142 0.123546 0.139601 0.145416 0.139601 0.145416C0.13903 0.146268 0.13846 0.14712 0.137889 0.147688" transform="translate(39.857376 19.857988)" id="Fill-108" fill="#000000" fill-rule="evenodd" stroke="none" />
    <path d="M1.56094 0.066471C1.21745 0.347935 -0.41367 1.67309 0.0987966 1.95709C0.429822 2.12689 0.382731 1.79402 1.2904 0.936146C1.88042 0.398077 2 0.414088 2 0.239226C2 0.0255997 1.73869 -0.0767894 1.56094 0.066471" transform="translate(39 19)" id="Fill-110" fill="#000000" fill-rule="evenodd" stroke="none" />
    <path d="M0.743043 0.0706121C0.456865 0.600744 0.242759 1.01302 0.0225816 1.62292C-0.0750992 1.89 0.169103 2.16829 0.278928 1.87387C0.750963 0.566238 1.1372 0.395503 0.953189 0.0706121C0.897749 -0.0194611 0.798484 -0.0275273 0.743043 0.0706121" transform="translate(44 18)" id="Fill-112" fill="#000000" fill-rule="evenodd" stroke="none" />
    <path d="M0.749554 0.0701852C0.470231 0.591095 0.220047 1.03678 0.0215805 1.63335C-0.0758152 1.91772 0.182769 2.15295 0.274127 1.87685C0.338182 1.68857 0.387011 1.54899 0.541637 1.21158C0.93437 0.419777 1 0.415429 1 0.239329C1 0.00713693 0.824373 -0.0702603 0.749554 0.0701852" transform="translate(45 19)" id="Fill-114" fill="#000000" fill-rule="evenodd" stroke="none" />
    <path d="M0.138772 0.147266C0.141625 0.143858 0.144192 0.14045 0.146474 0.136757C0.143051 0.141018 0.145048 0.138178 0.138772 0.147266" transform="translate(55.857376 24.857988)" id="Fill-116" fill="#000000" fill-rule="evenodd" stroke="none" />
    <path d="M0.677422 0.0462263C0.338901 0.357189 -0.210601 0.828421 0.0838239 0.975171C0.293449 1.07347 0.3735 0.861658 0.543099 0.659138C0.443714 0.763074 1 0.236353 1 0.153824C1 0.0146793 0.781217 -0.0509496 0.677422 0.0462263" transform="translate(57 24)" id="Fill-118" fill="#000000" fill-rule="evenodd" stroke="none" />
    <path d="M0 1.74069C0 1.97133 0.249359 2.0878 0.368249 1.92207C1.50696 0.359615 2.179 0.523042 1.9582 0.0857026C1.72236 -0.410563 0 1.39542 0 1.74069" transform="translate(57 22)" id="Fill-120" fill="#000000" fill-rule="evenodd" stroke="none" />
    <path d="M1.50112 0.661713C2.01247 0.271591 1.99997 0.292845 1.99997 0.191982C1.99997 -0.681918 -0.436626 1.69555 0.0690829 1.96644C0.443324 2.15592 0.399367 1.51904 1.50112 0.661713" transform="translate(61 22)" id="Fill-122" fill="#000000" fill-rule="evenodd" stroke="none" />
    <path d="M0.365437 1.91782C1.53609 0.449953 2 0.373933 2 0.168179C2 -0.537725 0.490987 1.17024 0.0305221 1.75345C-0.0970973 1.91929 0.206775 2.1136 0.365437 1.91782" transform="translate(64 22)" id="Fill-124" fill="#000000" fill-rule="evenodd" stroke="none" />
    <path d="M1.75432 0.000533553C0.24931 0.061529 0.171002 0.0539289 0.072457 0.0977755C-0.0960372 0.172217 0.0574993 0.293039 0.24579 0.28349C1.84099 0.213336 1.84143 0.227756 1.92765 0.186443C2.09571 0.111806 1.94305 -0.00901526 1.75432 0.000533553" transform="translate(24 39.857986)" id="Fill-126" fill="#000000" fill-rule="evenodd" stroke="none" />
    <path d="M0.142623 0C-0.0474124 0 -0.0476695 0.284024 0.142623 0.284024C0.332658 0.284024 0.332915 0 0.142623 0" transform="translate(24.857376 39.857986)" id="Fill-128" fill="#000000" fill-rule="evenodd" stroke="none" />
    <path d="M1.91446 0.00919656C1.71383 -0.0601126 1.76202 0.262523 1.5435 0.970748C1.28395 1.73769 0.591413 3.19167 0.165588 3.65202L0.165349 3.65202C-0.137142 3.55153 -0.0114224 4.36387 0.434919 3.7976C1.0838 2.97466 2.33813 0.167185 1.91446 0.00919656" transform="translate(53 41)" id="Fill-130" fill="#000000" fill-rule="evenodd" stroke="none" />
    <path d="M1.67505 0.056302C1.11888 0.536322 -0.547943 2 0.181672 2C0.394674 2 0.410903 1.61545 1.94418 0.318101C2.10376 0.179717 1.89211 -0.12566 1.67505 0.056302" transform="translate(54 40)" id="Fill-132" fill="#000000" fill-rule="evenodd" stroke="none" />
    <path d="M0.732064 0.0426722C0.466936 0.282007 0.227366 0.514614 0.0271165 0.782669C-0.0824171 0.923941 0.166702 1.10221 0.2973 0.927563C0.33999 0.869606 0.442783 0.733508 0.405429 0.791725C0.863223 0.279678 1 0.270881 1 0.145133C1 0.0121409 0.828959 -0.0465931 0.732064 0.0426722" transform="translate(57 43)" id="Fill-134" fill="#000000" fill-rule="evenodd" stroke="none" />
    <path d="M0.280103 0.0248924C0.0401966 -0.0958876 -0.105848 0.256241 0.0936915 0.366809C0.861327 0.767531 4.86294 2.39014 4.99389 1.91301C5.1232 1.40207 3.18819 1.58553 0.280103 0.0248924" transform="translate(2 86)" id="Fill-136" fill="#000000" fill-rule="evenodd" stroke="none" />
    <path d="M0.0885689 0.281836C1.64056 0.939843 1.93824 1.14619 1.99172 0.898783C2.0394 0.684273 1.90087 0.761654 1.05056 0.385538C0.145271 -0.0192677 0.0481905 -0.0900692 0.00394606 0.102069C-0.0130215 0.182872 0.0264978 0.256569 0.0885689 0.281836" transform="translate(4 84)" id="Fill-138" fill="#000000" fill-rule="evenodd" stroke="none" />
    <path d="M1.87794 0.625106C0.547087 0.295929 0.0999233 -0.263349 0.00623466 0.141571C-0.019478 0.251416 0.0372672 0.351929 0.12268 0.389621C1.37787 0.929155 2 1.20485 2 0.821464C2 0.733875 1.9533 0.643414 1.87794 0.625106" transform="translate(5 84)" id="Fill-140" fill="#000000" fill-rule="evenodd" stroke="none" />
    <path d="M0.881551 0.102822C0.40278 0.0295458 0.0755958 -0.0654178 0.00848104 0.0640481C-0.0490872 0.183985 0.1835 0.185792 0.795633 0.279606C0.996399 0.314272 1.09186 0.134531 0.881551 0.102822" transform="translate(7 82.85799)" id="Fill-142" fill="#000000" fill-rule="evenodd" stroke="none" />
    <path d="M1.8445 0.0844569C1.70457 0.0735398 0.221435 -0.0434552 0.0937094 0.0174987C-0.305099 0.208002 0.630918 0.195629 1.73126 0.281693C2.05915 0.307894 2.07479 0.105017 1.8445 0.0844569" transform="translate(64 93.85799)" id="Fill-144" fill="#000000" fill-rule="evenodd" stroke="none" />
    <path d="M1.93032 0.168165C2.09104 0.104817 1.94931 -0.00634766 1.75283 0.000283803C1.22344 0.0186076 0.702437 0.0568258 0.180994 0.0964401C0.0494196 0.105689 -0.0238737 0.168165 0.0070331 0.215457C0.0953383 0.341106 0.384979 0.266066 1.38195 0.21092C1.2826 0.21092 1.82921 0.205161 1.93032 0.168165" transform="translate(61 91.85799)" id="Fill-146" fill="#000000" fill-rule="evenodd" stroke="none" />
    <path d="M2 0.109131C2 -0.0488815 1.5736 0.00353235 0.9924 0.029932C0.248904 0.0665446 0.101623 0.0721328 0.0327808 0.131098C-0.035227 0.183512 0.00733007 0.24903 0.116643 0.279283C0.180479 0.295855 0.576426 0.265602 1.12758 0.240551C1.5907 0.218391 2 0.248066 2 0.109131" transform="translate(61 90.85799)" id="Fill-148" fill="#000000" fill-rule="evenodd" stroke="none" />
    <path d="M0.750402 0.0140506C0.142181 0.367977 0.0408692 0.42515 0.00826715 0.614092C-0.0232832 0.770909 0.0384153 0.939704 0.143233 0.990343C0.224562 1.02519 0.284859 0.964751 0.493442 0.824814C0.805089 0.624437 1 0.584144 1 0.310804C1 0.106616 0.860828 -0.0485671 0.750402 0.0140506" transform="translate(59 90)" id="Fill-150" fill="#000000" fill-rule="evenodd" stroke="none" />
    <path d="M0.142623 0C-0.0474124 0 -0.0476695 0.284024 0.142623 0.284024C0.332658 0.284024 0.332915 0 0.142623 0" transform="translate(57.857376 87.85799)" id="Fill-152" fill="#000000" fill-rule="evenodd" stroke="none" />
    <path d="M0.262809 2.04736C0.269078 0.137766 0.337105 0 0.151132 0C-0.00883765 0 0.00927212 0.0583592 0.00277118 1.98294C-0.00326541 3.80738 -0.0141777 4 0.151132 4C0.365895 4 0.256772 3.77581 0.262809 2.04736" transform="translate(72.857376 71)" id="Fill-154" fill="#000000" fill-rule="evenodd" stroke="none" />
    <path d="M0.215384 0.00219163C-0.0274491 -0.0680676 -0.00682093 1.57213 0.00801685 1.87696C0.0161595 2.05483 0.217555 2.02659 0.210679 1.87696C0.137395 0.437755 0.406284 0.0755636 0.215384 0.00219163" transform="translate(74.857376 73)" id="Fill-156" fill="#000000" fill-rule="evenodd" stroke="none" />
    <path d="M0.172154 0C0.0371133 0 0.0052897 0.238859 5.55637e-05 1.83115C-0.00413175 2.04597 0.22973 2.06636 0.234336 1.83115C0.23936 0.325275 0.379426 0 0.172154 0" transform="translate(77.857376 72)" id="Fill-158" fill="#000000" fill-rule="evenodd" stroke="none" />
    <path d="M0.0745027 0.211312C-0.0179911 1.68761 -0.0409265 2 0.102326 2C0.245579 2 0.184856 1.80759 0.285058 0.211312C0.292202 -0.0233565 0.0936783 -0.113904 0.0745027 0.211312" transform="translate(80.857376 72)" id="Fill-160" fill="#000000" fill-rule="evenodd" stroke="none" />
    <path d="M0.140056 0.138888C0.141767 0.14116 0.143479 0.143148 0.14519 0.145136C0.143479 0.142864 0.142338 0.141728 0.140056 0.138888" transform="translate(50.857376 6.8579884)" id="Fill-162" fill="#000000" fill-rule="evenodd" stroke="none" />
    <path d="M0.146166 0.13653C0.118782 0.172601 0.137608 0.153004 0.153012 0.127725C0.15073 0.130566 0.148448 0.13369 0.146166 0.13653" transform="translate(38.857376 7.8579884)" id="Fill-164" fill="#000000" fill-rule="evenodd" stroke="none" />
    <path d="M16.8162 4.20502L15.6028 4.07892L15.5243 8.1924L14.6067 8.09429L14.6895 3.98419L12.2785 3.73385L12.1842 7.83564L11.2672 7.73753L11.3658 3.63912L7.9345 3.28267L7.81949 7.3694L6.94741 7.2759L7.06646 3.19256L4.68212 2.94498L4.5516 7.02002L3.64852 6.92345L3.78307 2.8518L2.59074 2.72785C2.72901 2.58361 2.87286 2.4446 3.02136 2.31082L16.4011 3.69571C16.5446 3.86117 16.6835 4.03094 16.8162 4.20502L16.8162 4.20502ZM17.856 5.88208L17.8476 6.39662L16.8484 6.29143L16.8822 4.35202L16.9293 4.35664C17.2818 4.83734 17.5925 5.34787 17.856 5.88208L17.856 5.88208ZM18.7219 8.53409L17.9586 8.45259L17.9955 6.17579C18.335 6.92437 18.582 7.716 18.7219 8.53409L18.7219 8.53409ZM16.8459 6.43168L17.8451 6.53717L17.8141 8.4369L16.8125 8.32987L16.8459 6.43168ZM15.7069 6.17118L15.7435 4.23362L16.7387 4.33695L16.7046 6.27606L15.7069 6.17118ZM16.7018 6.41661L16.6683 8.3145L15.6685 8.20778L15.7042 6.31142L16.7018 6.41661ZM13.5099 5.9396L13.5514 4.00572L14.5434 4.10875L14.5041 6.04416L13.5099 5.9396ZM14.5013 6.18441L14.4628 8.07891L13.4661 7.9725L13.5068 6.07953L14.5013 6.18441ZM12.3736 5.81996L12.418 3.88793L13.4085 3.99065L13.3666 5.92453L12.3736 5.81996ZM13.3635 6.06446L13.3226 7.95712L12.3274 7.85071L12.3705 5.95989L13.3635 6.06446ZM9.68393 5.53671L9.73415 3.60898L11.2201 3.76337L11.1733 5.69356L9.68393 5.53671ZM11.1698 5.83318L11.124 7.72246L9.63123 7.56254L9.68021 5.67603L11.1698 5.83318ZM8.01852 5.36109L8.07215 3.43614L9.59186 3.59422L9.54163 5.52164L8.01852 5.36109ZM9.5376 5.66096L9.48831 7.54747L7.96179 7.38447L8.01449 5.50041L9.5376 5.66096ZM5.88126 5.13597L5.93986 3.2144L6.92106 3.3165L6.86433 5.23961L5.88126 5.13597ZM6.8603 5.37863L6.80511 7.26083L5.81957 7.15565L5.87692 5.27498L6.8603 5.37863ZM4.75776 5.01756L4.81883 3.09784L5.79818 3.19963L5.73958 5.1209L4.75776 5.01756ZM5.73524 5.25991L5.67758 7.14027L4.69328 7.0354L4.75311 5.15657L5.73524 5.25991ZM2.59508 4.78967L2.66112 2.87363L3.63767 2.97512L3.57412 4.8927L2.59508 4.78967ZM3.56947 5.03171L3.50684 6.90869L2.52595 6.80381L2.59043 4.92837L3.56947 5.03171ZM18.8542 10.2293L18.8037 13.5696L17.8774 13.4672L17.9456 9.27036L15.5088 9.00864L15.4289 13.1968L14.5059 13.0947L14.5899 8.90991L12.1656 8.64942L12.0692 12.8256L11.1472 12.7238L11.2477 8.551L7.79655 8.1801L7.67967 12.3406L6.80232 12.2438L6.92354 8.08629L4.52587 7.82887L4.39318 11.9777L3.48483 11.8772L3.62155 7.73169L1.23535 7.47519L1.08685 11.6124L0.18253 11.5124L0.304057 8.225C0.320177 7.78828 0.36792 7.36324 0.443874 6.9502L18.7786 8.91391C18.8344 9.34663 18.8607 9.78581 18.8542 10.2293L18.8542 10.2293ZM16.7613 11.2507L16.7957 9.28851L17.7983 9.39615L17.7664 11.3602L16.7613 11.2507ZM17.7639 11.5022L17.7323 13.4512L16.7247 13.3399L16.7588 11.3928L17.7639 11.5022ZM15.6133 11.1255L15.6502 9.16518L16.6513 9.27313L16.6165 11.235L15.6133 11.1255ZM16.614 11.3768L16.5796 13.3239L15.5739 13.2128L15.6105 11.2673L16.614 11.3768ZM13.4035 10.8847L13.4454 8.92806L14.4433 9.0357L14.4036 10.9939L13.4035 10.8847ZM14.4005 11.1357L14.3612 13.0791L13.3589 12.968L13.4004 11.0265L14.4005 11.1357ZM12.2611 10.7601L12.3057 8.80565L13.3018 8.91299L13.2594 10.869L12.2611 10.7601ZM13.2566 11.0108L13.2144 12.952L12.2134 12.8416L12.2577 10.9016L13.2566 11.0108ZM9.55558 10.4655L9.60643 8.51533L11.101 8.67618L11.0536 10.6288L9.55558 10.4655ZM11.0502 10.77L11.0034 12.7078L9.50164 12.5421L9.55186 10.6067L11.0502 10.77ZM7.88087 10.2831L7.93543 8.33572L9.46351 8.49995L9.41236 10.4501L7.88087 10.2831ZM9.40864 10.591L9.3581 12.5261L7.8229 12.3566L7.87684 10.424L9.40864 10.591ZM5.73121 10.0488L5.79043 8.10505L6.77721 8.21116L6.72017 10.1567L5.73121 10.0488ZM6.71614 10.2976L6.6594 12.2281L5.66797 12.1186L5.72687 10.1893L6.71614 10.2976ZM4.60151 9.92575L4.66321 7.98388L5.64844 8.08968L5.58892 10.0334L4.60151 9.92575ZM5.58458 10.1739L5.52536 12.1029L4.53548 11.9934L4.59686 10.0663L5.58458 10.1739ZM2.42674 9.68894L2.4934 7.75045L3.47553 7.85625L3.41105 9.79596L2.42674 9.68894ZM3.4064 9.93651L3.34253 11.8618L2.35575 11.7526L2.42178 9.82918L3.4064 9.93651ZM1.30231 9.56622L1.37145 7.62989L2.35203 7.73538L2.28507 9.67325L1.30231 9.56622ZM2.2801 9.81349L2.21376 11.7369L1.22884 11.628L1.29735 9.70647L2.2801 9.81349ZM18.7894 14.5095C18.7674 15.9491 18.4125 17.2802 17.7971 18.4375L17.8426 15.6203C17.8544 14.8899 17.3134 14.2351 16.6373 14.1601C15.9621 14.0851 15.4019 14.6165 15.3882 15.3454L15.3324 18.2607L14.4021 18.1542L14.4607 15.2414C14.4756 14.5132 13.9395 13.8605 13.2668 13.7858C12.5947 13.7111 12.0348 14.241 12.018 14.968L11.9514 17.8744L11.0291 17.7692L11.0852 15.4404C11.1103 14.3963 10.3489 13.4616 9.38973 13.3549C8.43177 13.2485 7.62945 14.0076 7.6 15.0486L7.53489 17.3703L6.65599 17.27L6.74032 14.3766C6.7614 13.6529 6.23685 13.0049 5.57156 12.9311C4.90688 12.857 4.34792 13.3838 4.32498 14.106L4.23259 16.9936L3.31711 16.889L3.41229 14.0036C3.43616 13.282 2.91657 12.6362 2.25468 12.5627C1.59311 12.4892 1.03477 13.0145 1.00904 13.7344L0.90921 16.511C0.37195 15.2381 0.0960352 13.8544 0.148428 12.4375L0.168889 11.8842L18.7978 13.9473L18.7894 14.5095ZM17.6811 16.5725L17.6492 18.5252L16.6358 18.4092L16.6699 16.4587L17.6811 16.5725ZM17.6833 16.4289L16.6723 16.3148L16.7074 14.3151C17.2688 14.4187 17.7072 14.9794 17.6969 15.604L17.6833 16.4289ZM15.5178 16.185L15.5333 15.3617C15.5451 14.7383 15.9999 14.2776 16.5623 14.2991L16.5269 16.2985L15.5178 16.185ZM16.5245 16.4424L16.4897 18.3926L15.4781 18.277L15.515 16.3283L16.5245 16.4424ZM13.2931 15.9344L13.3359 13.9402C13.8946 14.0435 14.3286 14.6024 14.3159 15.2254L14.2992 16.0475L13.2931 15.9344ZM14.2961 16.1912L14.2567 18.1376L13.2482 18.0226L13.29 16.0777L14.2961 16.1912ZM12.1439 15.8049L12.1625 14.984C12.1768 14.3622 12.6316 13.903 13.1915 13.9242L13.1481 15.9181L12.1439 15.8049ZM13.1453 16.0614L13.1028 18.006L12.0962 17.891L12.1405 15.9482L13.1453 16.0614ZM9.40554 15.4964L9.457 13.509C10.3033 13.6443 10.9634 14.4852 10.9407 15.4241L10.9348 15.6686L9.40554 15.4964ZM10.9314 15.8116L10.8843 17.7526L9.35128 17.5776L9.4015 15.6391L10.9314 15.8116ZM7.73671 15.3085L7.74384 15.0649C7.76989 14.1287 8.4668 13.441 9.31346 13.493L9.26138 15.4801L7.73671 15.3085ZM9.25766 15.6228L9.20681 17.5613L7.67874 17.3869L7.73299 15.4512L9.25766 15.6228ZM5.57807 15.0655L5.63852 13.0846C6.19066 13.1867 6.61507 13.7418 6.59678 14.3606L6.57291 15.1775L5.57807 15.0655ZM6.56857 15.3199L6.51184 17.2537L5.51482 17.1399L5.57373 15.2076L6.56857 15.3199ZM4.44185 14.9373L4.46759 14.122C4.48743 13.5044 4.94191 13.0477 5.4956 13.0686L5.43484 15.0492L4.44185 14.9373ZM5.4305 15.1916L5.37128 17.1233L4.37582 17.0099L4.4372 15.0797L5.4305 15.1916ZM2.25282 14.6909L2.32072 12.7155C2.86976 12.8173 3.29045 13.3706 3.26968 13.9879L3.24271 14.8023L2.25282 14.6909ZM3.23806 14.9443L3.17388 16.8724L2.18152 16.7592L2.24786 14.8327L3.23806 14.9443ZM15.8433 20.8573L11.4284 20.3452L11.4687 18.6214L7.03453 18.1124L6.98523 19.8298L2.68499 19.3312C2.0696 18.6309 1.54815 17.8522 1.14079 17.0185L17.5342 18.8942C17.0754 19.6379 16.5046 20.2985 15.8433 20.8573L15.8433 20.8573ZM15.4258 21.1882L11.4194 20.7226L11.4247 20.4901L15.6887 20.9849C15.6025 21.0544 15.5147 21.1221 15.4258 21.1882L15.4258 21.1882ZM11.3707 22.7875L11.416 20.8671L15.2515 21.3137C14.1339 22.097 12.8111 22.6131 11.3707 22.7875L11.3707 22.7875ZM10.5724 22.849L10.6577 19.3614L7.85979 19.0385L7.76338 22.5181C7.52528 22.4541 7.2906 22.3815 7.05933 22.3006L7.11482 20.3668L7.12939 19.8467L7.17434 18.2727L11.3205 18.7487L11.283 20.3283L11.2706 20.8505L11.2241 22.8041C11.0096 22.8265 10.7919 22.8419 10.5724 22.849L10.5724 22.849ZM9.22573 22.7949L9.29889 19.9759L10.4949 19.4872L10.5092 19.4887L10.4264 22.8521C10.0324 22.8585 9.63154 22.8398 9.22573 22.7949L9.22573 22.7949ZM7.90784 22.5556L8.00023 19.199L9.17054 19.3343L9.08033 22.7773C8.68227 22.7269 8.29102 22.6525 7.90784 22.5556L7.90784 22.5556ZM3.2393 19.9156L6.97035 20.3498L6.91579 22.2484C5.52877 21.7384 4.27754 20.9308 3.2393 19.9156L3.2393 19.9156ZM2.82945 19.4921L6.98089 19.974L6.97438 20.2056L3.07561 19.7523C2.9919 19.6668 2.91006 19.58 2.82945 19.4921L2.82945 19.4921ZM1.12188 14.5636L1.15102 13.7504C1.17303 13.1344 1.62721 12.6792 2.17842 12.6998L2.11022 14.6746L1.12188 14.5636ZM2.10526 14.8167L2.0386 16.7429L1.04841 16.6297L1.11692 14.7054L2.10526 14.8167ZM1.34509 4.42061L1.26418 6.6688L0.518278 6.58914C0.695918 5.81381 0.976483 5.08676 1.34509 4.42061L1.34509 4.42061ZM1.4722 4.81058L2.44937 4.91361L2.38458 6.78843L1.40524 6.68387L1.4722 4.81058ZM2.47263 2.85395L2.52068 2.85918L2.45433 4.77491L1.47716 4.67188L1.49545 4.16104C1.7785 3.69141 2.10588 3.25407 2.47263 2.85395L2.47263 2.85395ZM5.82732 1.54778L7.05561 1.67419L9.00158 0.781985L10.489 0.9333L12.3879 2.22193L13.628 2.34926L13.6131 3.03909L5.80624 2.23301L5.82732 1.54778ZM9.75554 0.0494016C7.04972 -0.224933 4.58353 0.659888 2.83008 2.29082C2.6853 2.42553 2.54517 2.56454 2.41031 2.70909C2.37156 2.75092 2.33281 2.79305 2.29499 2.8355C2.00605 3.15842 1.74223 3.50442 1.50568 3.87132C1.45453 3.95067 1.40462 4.03094 1.35594 4.11213C0.91045 4.85856 0.575942 5.68495 0.37505 6.57376C0.348079 6.69309 0.323898 6.81335 0.301576 6.93483C0.226552 7.34787 0.17912 7.77352 0.162999 8.20962L0.0408522 11.4967L0.0272114 11.8685L0.00644029 12.4218C-0.0475027 13.8762 0.239263 15.2968 0.797294 16.6014C0.854337 16.7352 0.91448 16.8681 0.977414 16.9997C1.37424 17.8289 1.88235 18.6054 2.48224 19.3076C2.52812 19.3614 2.57462 19.4149 2.62205 19.4678C2.69987 19.5554 2.77892 19.6422 2.85953 19.7271C2.9113 19.7818 2.96369 19.8362 3.01702 19.8897C4.10393 20.9886 5.43236 21.8596 6.91145 22.3975C6.95919 22.415 7.00693 22.4323 7.0553 22.4489C7.28657 22.5291 7.52125 22.6011 7.75935 22.6648C7.8074 22.6774 7.85545 22.69 7.9035 22.7023C8.28699 22.7986 8.67855 22.8724 9.07661 22.9228C9.1042 22.9262 9.13117 22.9302 9.15845 22.9336C9.17984 22.936 9.20092 22.9379 9.222 22.94C9.62782 22.9852 10.0287 23.0046 10.4227 22.9991C10.4717 22.9985 10.5204 22.9972 10.569 22.996C10.7885 22.9892 11.0058 22.9748 11.2207 22.9529C11.2697 22.948 11.3187 22.9431 11.3673 22.9376C12.9019 22.7573 14.3063 22.1964 15.4778 21.3398C15.5346 21.2986 15.5904 21.2565 15.6459 21.2138C15.7321 21.1473 15.8167 21.079 15.9001 21.0095C15.9506 20.9674 16.0008 20.9247 16.0504 20.8813C16.6962 20.3169 17.2539 19.6551 17.7016 18.9136C17.7729 18.7958 17.8408 18.6758 17.9065 18.5544C18.5445 17.3697 18.9131 16.0042 18.9351 14.5258L18.9435 13.9633L18.9491 13.5856L18.999 10.245C19.0055 9.8015 18.9798 9.36232 18.9249 8.9296C18.9088 8.80227 18.8905 8.67587 18.8694 8.54977C18.7113 7.61174 18.4143 6.70816 18.0004 5.8624C17.9555 5.77014 17.9087 5.67879 17.8609 5.58807C17.639 5.16734 17.3882 4.7623 17.111 4.37571C17.0744 4.32496 17.0375 4.27452 17.0003 4.22408C16.8711 4.05062 16.7359 3.88147 16.5964 3.71601C14.9074 1.71478 12.4725 0.324659 9.75554 0.0494016L9.75554 0.0494016Z" transform="translate(25 49)" id="Fill-166" fill="#000000" fill-rule="evenodd" stroke="none" />
    <path d="M20.7825 14.4303C20.7 19.6402 15.8996 23.4167 10.1252 22.793C4.39718 22.1743 -0.0557163 17.4601 0.155248 12.3384L0.322207 8.2878C0.528641 3.27996 5.19768 -0.333752 10.772 0.18015C16.3901 0.698151 20.9284 5.21844 20.8478 10.3109L20.7825 14.4303ZM10.7759 0.0492587C5.12164 -0.471378 0.385302 3.19358 0.175309 8.27345L0.00737876 12.3235C-0.207792 17.5193 4.30917 22.3031 10.1214 22.9315C15.9811 23.5649 20.8517 19.7324 20.9346 14.4458L20.9989 10.3255C21.0798 5.159 16.4749 0.573995 10.7759 0.0492587L10.7759 0.0492587Z" transform="translate(24 49)" id="Fill-168" fill="#000000" fill-rule="evenodd" stroke="none" />
  </g>
</svg>